<?xml version="1.0" encoding="utf-8"?>
<!-- Generator: Adobe Illustrator 24.0.1, SVG Export Plug-In . SVG Version: 6.00 Build 0)  -->
<svg version="1.1" id="Layer_1" xmlns="http://www.w3.org/2000/svg" xmlns:xlink="http://www.w3.org/1999/xlink" x="0px" y="0px"
	 viewBox="0 0 595.3 841.9" enable-background="new 0 0 595.3 841.9" xml:space="preserve">
<path d="M165.5,470c5.6-2.5,10.6-4.9,15.8-6.9c31.1-11.9,60.1-7.7,86.5,12.1c10.8,8.1,22.3,12.2,35.7,11.8
	c11.1-0.4,22.2,0.5,33.3-0.2c19.9-1.2,35.6,15.2,30.6,37.2c3-1,5.7-2,8.5-2.9c22.7-8.1,45.4-16.4,68.2-24.4
	c17.1-6,34.3,3.9,38.1,21.5c2.6,12-3.2,24.2-14.5,31c-24,14.4-49.3,26.1-75.7,35.3c-22.7,7.9-45.8,14.8-69.7,18.1
	c-28.6,3.9-56.5,0.8-83.6-8.9c-16.7-6-33.2-12.2-50.9-14.8c-7.2-1-14.5-1.6-22.3-2.4c0,2.6,0.1,4.3,0,6c-0.3,7.8-5.1,12.5-12.9,12.5
	c-8.9,0.1-17.7,0.1-26.6,0c-8.6,0-13.4-4.8-13.4-13.5c0-38.9,0-77.8,0-116.8c0-1.2,0-2.5,0-3.7c0.2-7.3,4.8-12.4,12-12.6
	c9.6-0.2,19.2-0.2,28.8,0c6.9,0.2,11.6,5,12,11.9C165.6,463.4,165.5,466.5,165.5,470z M165.4,566.2c7.3,0.7,14.3,1.2,21.2,2.1
	c18.4,2.5,35.8,8.5,53.1,14.9c27.3,10.1,55.5,13.9,84.2,8.6c18.9-3.5,37.6-8.6,56.1-14.3c29-8.9,56.5-21.6,82.6-37.3
	c7.1-4.3,10.8-10.4,9.9-18.6c-1.4-12.2-13-19.4-24.8-15.3c-14.2,4.9-28.4,10.1-42.6,15.2c-16.4,5.9-33,11.3-49.2,17.8
	c-8.5,3.4-16.9,4.6-25.9,4.5c-16-0.2-31.9-0.1-47.9-0.1c-1.4,0-3.1,0.3-4-0.4c-1.5-1.3-3.5-3.3-3.5-4.9c0.1-1.7,2.2-3.5,3.8-4.7
	c0.8-0.6,2.4-0.2,3.7-0.2c18.7,0,37.4,0,56.1,0c9.3,0,17-5.3,19.3-13.1c3.4-11.8-5-23.2-17.7-23.4c-12.6-0.2-25.2-0.4-37.8,0
	c-15,0.5-28.1-4.1-39.8-13.4c-7.9-6.3-16.7-10.8-26.4-13.7c-24.1-7.1-46.3-1.9-67.4,10.3c-2.2,1.3-3,2.7-3,5.3
	c0.1,25.7,0.1,51.4,0.1,77.1C165.4,563.8,165.4,565,165.4,566.2z M155.4,521.6c0-19.6-0.1-39.2,0.1-58.7c0-3.2-1-4.4-4.3-4.3
	c-8.1,0.2-16.2,0.2-24.3,0c-3-0.1-4.2,0.9-4.2,4.1c0.1,39.4,0.1,78.8,0,118.2c0,3.2,1.4,4,4.3,4c7.9-0.1,15.7,0,23.6,0
	c4.7,0,4.9-0.2,4.9-4.8C155.4,560.5,155.4,541,155.4,521.6z"/>
<path d="M236.9,408c0.6-4.4,1.5-10.8,2.5-17.2c0.8-5.2-0.8-9.5-4.6-13.2c-3.9-3.7-7.8-7.4-11.3-11.4c-8.4-9.5-8.4-18.1-0.1-27.7
	c3.2-3.7,6.6-7.2,10.3-10.4c5.6-4.8,6.6-10.7,5.4-17.6c-0.9-5.1-1.8-10.3-2.1-15.5c-0.6-10.6,4.1-17.1,14.4-19.7
	c5.7-1.4,11.5-2.2,17.3-3c5.8-0.8,9.9-3.7,12.4-9c2-4.3,4.1-8.5,6.4-12.7c6.9-12.5,15.4-15.3,28.4-9.2c4.4,2.1,8.7,4.3,13,6.6
	c5,2.7,10,2.6,15,0c4.4-2.3,8.8-4.6,13.3-6.7c12.5-5.8,20.8-3.2,27.6,8.8c2.5,4.4,4.8,9,7,13.6c2.4,5.1,6.4,7.8,11.9,8.6
	c4.4,0.6,8.9,1.3,13.3,2.1c15.4,2.8,20.9,10.7,18.4,26.3c-0.8,4.8-1.5,9.6-2.2,14.4c-0.6,4.2,0.7,7.9,3.8,10.9
	c2.9,2.9,5.9,5.7,8.7,8.7c2.4,2.6,4.9,5.4,6.8,8.4c3.9,6.1,4.1,12.7-0.1,18.6c-3.3,4.6-7.2,9-11.4,12.7c-6.7,5.9-9.3,12.5-7.1,21.3
	c1.1,4.6,1.6,9.3,1.9,14.1c0.6,10.4-4.1,16.9-14.2,19.4c-5.7,1.4-11.5,2.3-17.3,3.1c-6,0.8-10.1,3.7-12.7,9.1
	c-2.2,4.6-4.4,9.2-7,13.6c-6.6,11.3-14.9,13.9-26.8,8.5c-4.5-2.1-8.9-4.4-13.3-6.8c-5.4-2.8-10.7-2.9-16.1,0
	c-4.8,2.6-9.7,5.2-14.7,7.3c-10.5,4.5-18.3,2.1-24.4-7.6c-3-4.8-5.5-10.1-8-15.2c-2.6-5.3-6.5-8.2-12.4-9
	c-5.8-0.8-11.6-1.6-17.3-3.1C241.2,426.8,236.6,420.5,236.9,408z M425.7,296.2c0.2-7.4-1.4-9.7-7.4-11.1c-4.6-1-9.3-1.8-14-2.3
	c-10.4-1.2-17.9-6.2-22.3-15.9c-1.7-3.9-3.7-7.6-5.7-11.3c-4.2-7.7-7.3-8.7-15.2-5c-4.7,2.2-9.3,4.8-14,7.1
	c-7.2,3.5-14.4,3.5-21.6,0c-4.7-2.3-9.3-4.8-14-7c-7.9-3.7-10.9-2.8-15.2,4.9c-2.5,4.5-4.6,9.1-7,13.6c-3.8,7.2-9.7,11.5-17.7,12.9
	c-5.7,0.9-11.3,1.7-16.9,2.9c-6.6,1.5-8.5,4.2-7.7,11c0.4,3.6,0.9,7.2,1.7,10.7c3,12.2,0.1,22.4-9.7,30.5c-2.7,2.2-5.1,4.8-7.4,7.4
	c-5.5,6.1-5.5,9.5,0,15.5c3.3,3.6,6.8,6.9,10.3,10.3c6.7,6.5,9.2,14.3,7.5,23.5c-0.9,4.8-1.7,9.6-2.3,14.4c-0.9,7.1,1,9.9,8,11.5
	c2.8,0.6,5.6,1.3,8.5,1.4c14.3,0.7,24.3,7.2,29.4,20.9c1.1,2.9,2.7,5.6,4.3,8.3c3.7,6.2,6.7,7.2,13.4,4.2c3.8-1.7,7.4-3.6,11-5.6
	c9.8-5.7,19.5-5.8,29.4-0.2c4.1,2.3,8.4,4.4,12.7,6.3c5.3,2.3,8.1,1.5,11.1-3.4c2.7-4.3,5-8.9,7.1-13.5c4.5-9.9,12.2-15,22.9-16.2
	c5.2-0.6,10.3-1.7,15.4-2.8c3.9-0.9,6-3.7,5.6-7.7c-0.5-4.9-1-9.9-2-14.8c-2.4-11.3,0.4-20.7,9.2-28.3c2.8-2.4,5.5-5.1,8-7.8
	c5.8-6.4,5.8-9.8,0-16.1c-3.9-4.2-8.1-8.1-12-12.3c-4.9-5.2-6.7-11.6-5.7-18.6C424,307.2,425,301.1,425.7,296.2z"/>
<path d="M407.3,352.4c-0.1,39.1-32,71-71,71c-39.2,0-71.1-32.1-70.9-71.4c0.2-39.2,32-70.8,71.2-70.7
	C375.6,281.3,407.4,313.3,407.3,352.4z M336.4,291.5c-33.6-0.1-61,27.2-61,60.8c0,33.4,27.2,60.7,60.6,60.8
	c33.7,0.1,61.1-27,61.2-60.6C397.3,318.9,370.1,291.6,336.4,291.5z"/>
<path d="M324,348.9c9.4-9.5,18.2-18.5,27.3-27.2c2.3-2.2,5.4-4.2,8.5-5.1c7.1-2.2,14.6,1.1,18.4,7.4c3.8,6.3,3.1,14.1-1.9,19.8
	c-1.8,2-3.8,3.9-5.8,5.9c-11.1,11.1-22.2,22.3-33.3,33.3c-7.9,7.9-17.5,7.9-25.4,0.1c-4.8-4.7-9.6-9.5-14.3-14.3
	c-7-7.1-7.2-17.5-0.5-24.1c6.7-6.7,16.9-6.5,24.1,0.5C322,346.2,322.9,347.5,324,348.9z M324.4,379c1.7-0.8,3.3-1.1,4.3-2.1
	c13.5-13.3,26.8-26.7,40.2-40.1c0.3-0.3,0.6-0.8,0.8-1.2c1.3-2.8,1.1-5.4-1.1-7.6c-2.3-2.3-5.1-2.6-7.9-1c-1.2,0.7-2.1,1.7-3.1,2.7
	c-9.5,9.5-19,19-28.6,28.5c-3.5,3.4-5.7,3.4-9.3,0c-2.1-2-4-4.1-6.1-6c-3-2.8-6.8-2.9-9.4-0.4c-2.8,2.7-2.8,6.4,0.2,9.6
	c4.9,5.1,10,10.1,15.1,15C320.9,377.6,322.8,378.1,324.4,379z"/>
</svg>
