<?xml version="1.0" encoding="utf-8"?>
<!-- Generator: Adobe Illustrator 24.0.1, SVG Export Plug-In . SVG Version: 6.00 Build 0)  -->
<svg version="1.1" id="Layer_1" xmlns="http://www.w3.org/2000/svg" xmlns:xlink="http://www.w3.org/1999/xlink" x="0px" y="0px"
	 viewBox="0 0 595.3 841.9" enable-background="new 0 0 595.3 841.9" xml:space="preserve">
<path d="M422.5,418.4c0.8,16,1.6,31.8,2.4,47.6c0.6,12.3,1.2,24.5,1.8,36.8c0.2,4.3-0.8,5.3-5.1,5.3c-7.9,0.1-15.7,0.1-23.6,0
	c-4.4,0-5.3-1.1-5.1-5.7c1.2-23.9,2.4-47.9,3.6-71.8c0-0.7,0-1.4,0-2.5c-9.9,3.7-19.4,7.2-29.3,10.8c1.4,8.5,2.7,16.9,4.1,25.2
	c0.7,4.4,1.7,8.7,1.9,13.1c0.1,1.6-1.3,4-2.7,4.8c-1.2,0.7-4,0.3-5.1-0.6c-10.7-8.8-23.4-11.8-36.7-12c-8-0.1-16,1.8-24,2.4
	c-4.3,0.3-8.8,0.5-13-0.5c-19.4-4.3-37.9-2.6-55.3,7.3c-1.5,0.9-2.8,2.4-4.4,3c-1.7,0.6-4.3,1.4-5.5,0.6c-1.4-0.9-2.6-3.6-2.4-5.3
	c1.6-11.6,3.4-23.1,5.5-34.6c0.6-3-0.5-3.9-2.9-4.8c-22.7-8.3-45.3-16.7-68-25.2c-1.4-0.5-3-1.2-4-2.2c-1.8-1.9-0.7-4.2,2.4-5.8
	c12.6-6.4,25.3-12.9,37.9-19.3c33.2-16.9,66.5-33.8,99.6-50.7c2.8-1.5,5.1-1.5,8-0.1c45.2,23.1,90.4,46,135.6,69
	c0.8,0.4,1.9,0.7,2.5,1.4c1,1.2,2.4,2.6,2.4,3.9c0,1.1-1.5,2.7-2.7,3.2C434.4,414.1,428.5,416.2,422.5,418.4z M231,431.6
	c2.1-12.5,4.1-24.4,5.9-36.4c0.5-3.4,2.1-4.8,5.4-4.8c37.6,0,75.1,0,112.7,0c3.1,0,4.7,1.3,5.2,4.6c1.9,12.1,3.9,24.1,6,36.6
	c7.3-2.7,14.5-5.3,21.6-8c4.5-1.7,8.3-3.6,11.8-7.5c4.9-5.6,7.7-11,6.7-18.4c-0.3-2-0.8-3.1-2.6-4c-34.1-17.3-68.1-34.6-102.2-52
	c-2-1-3.5-1.1-5.6,0c-41.9,21.4-83.8,42.7-125.7,64c-1,0.5-2,1.1-3.5,2C188.3,415.8,209.5,423.6,231,431.6z M364.9,472
	c0.1-0.7,0.2-0.9,0.2-1.1c-3.8-23.5-7.6-46.9-11.4-70.4c-0.3-2-1.4-2.4-3.2-2.4c-34.6,0-69.1,0-103.7,0c-2.1,0-3,0.7-3.3,2.7
	c-3,18.7-6.1,37.3-9.1,56c-0.8,5.2-1.6,10.4-2.5,16c16.6-9.5,34-12.8,51.9-9.9c10.3,1.7,19.9,1.6,30.2,0
	C331.6,460.1,348.8,462.8,364.9,472z M400.1,500.6c6.8,0,13,0,19.2,0c0-1.6,0.1-2.9,0-4.2c-1.1-22.6-2.4-45.2-3.3-67.8
	c-0.2-5.6-1.8-9.8-7.1-13.5c-1.7,3.2-4.7,6.2-4.9,9.4c-1.4,18.4-2.1,36.8-3,55.3C400.7,486.7,400.4,493.6,400.1,500.6z M413.4,398.7
	c-0.1,1.4-0.1,2.2-0.1,3c0,1.7-0.6,3.6,0.1,4.9c1.2,2.1,3.5,5.5,4.8,5.3c4-0.6,7.8-2.6,12.5-4.4
	C424.6,404.5,419.3,401.7,413.4,398.7z"/>
</svg>
