<?xml version="1.0" encoding="utf-8"?>
<!-- Generator: Adobe Illustrator 24.0.1, SVG Export Plug-In . SVG Version: 6.00 Build 0)  -->
<svg version="1.1" id="Layer_1" xmlns="http://www.w3.org/2000/svg" xmlns:xlink="http://www.w3.org/1999/xlink" x="0px" y="0px"
	 viewBox="0 0 595.3 841.9" enable-background="new 0 0 595.3 841.9" xml:space="preserve">
<path d="M211.5,612.9c-1.3-2-3.2-3.8-3.9-6c-4.5-13.6-8.8-27.3-13.1-40.9c-0.3-1-0.7-2.1-1.2-3.3c-15.4,3.4-30.6,6.6-45.8,10
	c-2.8,0.6-5.2,0.6-7-1.9c-1.8-2.4-1.3-4.8,0.1-7.3c8.3-14.3,16.6-28.7,24.8-43.1c2.4-4.2,5.3-5.4,8.5-3.6c3.1,1.7,3.6,5.1,1.3,9.1
	c-5.5,9.6-11.1,19.2-16.6,28.8c-0.7,1.2-1.3,2.4-2.3,4.2c2.3-0.4,4-0.6,5.8-1c10.5-2.3,20.9-4.7,31.4-7c6.2-1.4,7.9-0.3,9.9,5.8
	c3.8,11.9,7.6,23.7,11.6,36.6c16.3-28.3,32.2-56,48.4-84.1c-22.6-5.9-42.5-16.4-60-31.9c-1.1,1.9-2.2,3.7-3.3,5.4
	c-3.6,6.1-7.1,12.3-10.7,18.4c-2,3.4-4.8,4.2-7.9,2.5c-3-1.7-3.8-4.6-1.9-8c5-8.8,10-17.5,15.1-26.3c-3.4-4.1-6.8-8-9.9-12.2
	c-20.6-27.5-30.4-58.5-28.6-92.7c2.2-40.3,18.8-73.9,49.1-100.6c3.2-2.8,6.7-2.8,8.9-0.2c2.3,2.7,1.8,5.8-1.6,8.8
	c-19.6,17.1-33,38.1-40.4,63C150.9,409,198.9,486.5,274.3,500c70.3,12.5,137.1-33,151.1-103c14.3-71.4-33.4-141.5-104.9-154
	c-29.5-5.2-57.5-0.6-84.1,13.2c-0.6,0.3-1.1,0.6-1.6,0.9c-3.2,1.5-6.3,0.7-7.8-2c-1.6-2.8-0.7-6.4,2.6-7.9c9.6-4.2,19-9,29-11.9
	c80.6-23.6,164.5,29.1,178.4,112c7.5,44.9-4.3,84.7-34.2,119c-1.9,2.2-1.9,3.7-0.5,6.1c17.2,29.7,34.2,59.4,51.3,89.1
	c0.4,0.6,0.7,1.3,1.1,1.9c1.4,2.3,1.8,4.6,0.2,7c-1.7,2.4-4,2.7-6.6,2.1c-9.7-2.2-19.5-4.3-29.2-6.4c-5.6-1.2-11.2-2.4-17.1-3.7
	c-0.6,1.6-1.2,3.1-1.6,4.6c-4.3,13.4-8.5,26.8-12.7,40.2c-0.8,2.7-2,4.8-5.1,5.2c-3.3,0.4-5-1.4-6.4-4.1c-2.6-4.7-5.4-9.3-8-14
	c-2-3.6-1.4-6.7,1.5-8.5c3-1.8,5.9-0.8,8.1,2.8c0.7,1.1,1.4,2.3,2.4,4c0.6-1.5,1.1-2.6,1.4-3.6c3.5-11,7-22.1,10.5-33.1
	c1.7-5.5,3.5-6.5,9.1-5.3c11.2,2.4,22.4,4.9,33.6,7.4c1.2,0.3,2.4,0.5,4.4,0.8c-15.8-27.5-31.3-54.3-47-81.6
	c-17.5,15.4-37.3,26.1-60,32c0.8,1.5,1.4,2.7,2.1,3.8c9.5,16.5,19,33,28.5,49.6c0.7,1.2,1.4,2.4,1.8,3.7c1,2.8-0.1,5-2.4,6.4
	c-2.4,1.4-4.9,1.1-6.8-0.9c-0.9-1-1.6-2.2-2.2-3.4c-10.3-17.9-20.7-35.8-30.9-53.8c-1.2-2.2-2.5-2.9-5-2.5c-12.9,2-25.8,2-38.7,0
	c-2.6-0.4-3.7,0.5-4.9,2.6c-17.8,31-35.6,62-53.5,93c-1.1,2-3,3.5-4.5,5.3C214,612.9,212.8,612.9,211.5,612.9z"/>
<path d="M400.8,372.6c-0.6,5.3-1.2,11.7-2.1,17.9c-0.7,4.7-3.1,6.7-6.8,6.1c-3.5-0.6-5-3.6-4.2-8.2c3.5-19.3,1.3-38-7-55.8
	c-16.5-35.2-53-56.9-93-52.5c-41,4.4-73.7,35.7-80.5,76.1c-8.8,52.2,28,100.9,80.7,106.9c35.5,4.1,71.5-14.3,89.1-45.5
	c0.6-1.1,1.2-2.2,1.8-3.3c2.1-3.5,5.1-4.6,8.1-2.9c3,1.7,3.7,4.8,1.6,8.4c-2.8,4.8-5.6,9.8-9,14.1c-27.5,34.1-63.2,47.8-105.6,37.6
	c-42.6-10.2-68.9-38.6-77.3-81.6c-11.1-56.9,28.3-111.8,85.5-120.6c56.8-8.7,110.1,31.4,117.5,88.3
	C400.1,362.4,400.4,367,400.8,372.6z"/>
<path d="M332.2,425.3c-0.7-0.3-2.1-0.7-3.4-1.4c-9.5-5-19-10-28.4-15.1c-2-1.1-3.5-1.1-5.5,0c-9.4,5.1-18.9,10-28.4,15.1
	c-2.5,1.3-4.8,2.1-7.3,0.4c-2.5-1.7-2.7-4.1-2.1-7c1.9-10.7,3.6-21.4,5.6-32c0.4-2.2,0-3.6-1.7-5.2c-7.8-7.4-15.4-15-23.1-22.4
	c-2-1.9-3.6-3.8-2.6-6.8c1-3.1,3.5-3.9,6.3-4.3c10.7-1.5,21.5-2.9,32.2-4.7c1.4-0.2,3.1-1.6,3.7-2.9c4.9-9.7,9.6-19.4,14.4-29.2
	c1.2-2.5,2.6-4.5,5.8-4.5c3.1,0,4.6,1.9,5.8,4.4c4.7,9.8,9.6,19.4,14.2,29.2c1,2.1,2.3,2.8,4.5,3.1c10.7,1.4,21.5,2.8,32.2,4.7
	c2.1,0.4,4.9,2.3,5.4,4.1c0.6,1.8-0.6,4.9-2.1,6.4c-7.5,7.8-15.4,15.3-23.2,22.8c-1.6,1.5-2.2,2.8-1.8,5.2c2.1,11,3.9,22.1,5.7,33.1
	C339,422.1,336.6,425.1,332.2,425.3z M254.1,356.1c5.4,5.8,10.7,12,16.5,17.5c3.5,3.4,4.4,6.7,3.5,11.3c-1.7,7.9-2.8,15.9-4.3,24.4
	c7.9-4.2,15.3-7.9,22.5-12c3.7-2.1,6.8-2.1,10.5,0c7.2,4.1,14.7,7.9,22.3,11.9c0-1,0-1.6-0.1-2.2c-1.3-7.7-2.6-15.5-4.1-23.2
	c-0.8-3.9,0.1-6.9,3.2-9.6c5.6-5,10.8-10.4,16.1-15.6c0.6-0.6,1.2-1.4,2-2.3c-8.5-1.3-16.5-2.7-24.5-3.5c-4.7-0.5-7.3-2.6-9.2-6.8
	c-3.3-7.3-7-14.5-10.8-22.2c-0.9,1.6-1.5,2.6-2,3.7c-3.4,6.8-6.7,13.6-10,20.5c-1.3,2.7-3.3,4.2-6.3,4.6
	C270.8,353.6,262.2,354.9,254.1,356.1z"/>
</svg>
