<?xml version="1.0" encoding="utf-8"?>
<!-- Generator: Adobe Illustrator 24.0.1, SVG Export Plug-In . SVG Version: 6.00 Build 0)  -->
<svg version="1.1" id="Layer_1" xmlns="http://www.w3.org/2000/svg" xmlns:xlink="http://www.w3.org/1999/xlink" x="0px" y="0px"
	 viewBox="0 0 595.3 841.9" enable-background="new 0 0 595.3 841.9" xml:space="preserve">
<path d="M228.3,461.5c0-16.9,13.4-30.5,30-30.4c16.6,0,29.9,13.6,29.9,30.5c0,16-13.6,29.3-29.9,29.3
	C241.9,490.9,228.3,477.6,228.3,461.5z M280.5,472.1c5.6-10.1,2.3-23.7-7.4-31.1c-9.4-7.2-23-6.5-31.6,1.6
	c-9.1,8.6-10.2,21.7-5.4,29.4c3-5.1,8.6-5.7,13.4-7.7c-6.8-6.4-5.5-15.2-1-19.8c5-5.1,13.1-5.5,18.5-0.9c4.8,4.1,7.6,13.3,0,20.7
	C271.9,466.3,277.4,467,280.5,472.1z M256.5,485.9c8,0,13.7-2.2,18.4-6.4c2.3-2.1,2.5-3.7,0.4-6c-0.7-0.8-1.7-1.6-2.7-1.9
	c-3.6-1.3-7.2-2.6-10.9-3.6c-1.9-0.5-4.1-0.6-5.9-0.2c-4.1,1-8.1,2.5-12.1,3.9c-1.9,0.7-3,2.3-3.7,4.2c-0.4,1.1-0.1,1.8,0.7,2.6
	C245.4,483.4,251.3,485.8,256.5,485.9z M266.7,454c0-4.7-3.8-8.6-8.4-8.6c-4.6,0-8.4,3.9-8.4,8.5c0,4.7,3.8,8.6,8.4,8.6
	C262.8,462.5,266.6,458.7,266.7,454z"/>
<path d="M300.7,420.8c0,13.3,0,26.6,0,39.9c0,8.3,4.9,14.8,12.6,16.9c11.6,3.2,22.2-4.8,22.4-16.8c0.1-5.9,0-11.9,0.1-17.8
	c0-0.9,0.4-2,1-2.6c0.5-0.5,1.8-0.6,2.4-0.3c0.7,0.4,1.4,1.5,1.5,2.3c0.2,3.2,0.1,6.4,0.1,9.7c0,3.8,0.1,7.7-0.3,11.5
	c-1.8,15.5-16.2,22.2-28.6,18.8c-9.9-2.8-16-11.2-16-21.8c0-13.5,0-27,0-40.5c0-12.8,0-25.6,0-38.4c0-6.7-2.6-12.2-8.5-15.6
	c-10.2-5.9-26.1-0.7-26.3,15.2c-0.2,12.7,0,25.5,0,38.2c0,0.4,0,0.8,0,1.2c-0.1,1.7-1.1,2.8-2.5,2.7c-1.4,0-2.4-1.1-2.4-2.7
	c0-13.7-0.2-27.3,0.1-41c0.2-11.3,9.9-20.6,21.3-21.1c11.5-0.5,21.8,7.9,23.3,19.1c0.2,1.4,0.3,2.8,0.3,4.2
	C300.7,394.9,300.7,407.9,300.7,420.8z"/>
<path d="M337.1,351.2c17.5,0,31,13.5,31,29.7c0,4.6-1.6,8.7-3.5,12.8c-4.1,8.6-9.5,16.4-15.3,24c-2.8,3.6-5.7,7-8.5,10.5
	c-1.8,2.2-3.2,2.2-5,0.1c-8.7-10.2-16.9-20.7-23-32.7c-1.8-3.6-3.4-7.4-4.1-11.3c-1.5-8.7,1.4-16.4,7.2-23
	C321.7,354.6,329.3,351.4,337.1,351.2z M338.1,423.6c2.1-2.5,4-4.8,5.8-7.2c6.1-7.9,11.9-15.9,16.2-24.9c1.6-3.3,3-6.8,3-10.6
	c0-14.7-13.1-26.1-27.9-24.5c-15.6,1.7-26.9,19-19.6,33.9C321.5,402.3,329.5,412.9,338.1,423.6z"/>
<path d="M338.1,366.3c8.5,0,15,6.3,15,14.8c0,8.4-6.5,14.9-14.9,14.9c-8.4,0-15-6.4-15-14.8C323.1,372.7,329.5,366.4,338.1,366.3z
	 M328.1,381.1c0,5.4,4.5,9.9,9.9,10c5.4,0,10-4.4,10.1-9.8c0-5.4-4.4-9.9-9.9-10C332.8,371.2,328.2,375.7,328.1,381.1z"/>
</svg>
